<?xml version="1.0" encoding="UTF-8" standalone="no"?>
<svg width="8px" height="13px" viewBox="0 0 8 13" version="1.1" xmlns="http://www.w3.org/2000/svg" xmlns:xlink="http://www.w3.org/1999/xlink">
    <!-- Generator: Sketch 42 (36781) - http://www.bohemiancoding.com/sketch -->
    <title>facebook</title>
    <desc>Created with Sketch.</desc>
    <defs></defs>
    <g id="Page-1" stroke="none" stroke-width="1" fill="none" fill-rule="evenodd">
        <g id="facebook" transform="translate(0.393008, 0.000000)" fill-rule="nonzero" fill="#000000">
            <g id="Capa_1">
                <path d="M6.71295876,0.00268041237 L5.04239175,0 C3.16556701,0 1.95268041,1.24438144 1.95268041,3.17039175 L1.95268041,4.63215464 L0.273,4.63215464 C0.12785567,4.63215464 0.0103195876,4.74982474 0.0103195876,4.89496907 L0.0103195876,7.01289691 C0.0103195876,7.15804124 0.127989691,7.27557732 0.273,7.27557732 L1.95268041,7.27557732 L1.95268041,12.6197835 C1.95268041,12.7649278 2.07021649,12.8824639 2.21536082,12.8824639 L4.40686598,12.8824639 C4.55201031,12.8824639 4.66954639,12.7647938 4.66954639,12.6197835 L4.66954639,7.27557732 L6.63348454,7.27557732 C6.77862887,7.27557732 6.89616495,7.15804124 6.89616495,7.01289691 L6.89696907,4.89496907 C6.89696907,4.82527835 6.8692268,4.75853608 6.82004124,4.70921649 C6.77085567,4.65989691 6.70384536,4.63215464 6.63415464,4.63215464 L4.66954639,4.63215464 L4.66954639,3.393 C4.66954639,2.79741237 4.81147423,2.49506186 5.58731959,2.49506186 L6.71269072,2.49465979 C6.85770103,2.49465979 6.97523711,2.37698969 6.97523711,2.23197938 L6.97523711,0.265360825 C6.97523711,0.120484536 6.85783505,0.00294845361 6.71295876,0.00268041237 Z" id="Shape"></path>
            </g>
        </g>
    </g>
</svg>