<?xml version="1.0" encoding="UTF-8" standalone="no"?>
<svg width="16px" height="11px" viewBox="0 0 16 11" version="1.1" xmlns="http://www.w3.org/2000/svg" xmlns:xlink="http://www.w3.org/1999/xlink">
    <!-- Generator: Sketch 42 (36781) - http://www.bohemiancoding.com/sketch -->
    <title>french</title>
    <desc>Created with Sketch.</desc>
    <defs></defs>
    <g id="Page-1" stroke="none" stroke-width="1" fill="none" fill-rule="evenodd">
        <g id="french" fill="#000000">
            <path d="M0.116146998,10.7373047 L0.116146998,0 L7.116147,0 L7.116147,1.26708984 L1.48925114,1.26708984 L1.48925114,4.59228516 L6.35881636,4.59228516 L6.35881636,5.859375 L1.48925114,5.859375 L1.48925114,10.7373047 L0.116146998,10.7373047 Z M8.22747512,10.7373047 L8.22747512,0 L11.7491469,0 C12.4570968,0 12.9952751,0.0964345825 13.363698,0.289306641 C13.7321209,0.482178699 14.0264936,0.822751465 14.246825,1.31103516 C14.4671563,1.79931885 14.5773203,2.33886423 14.5773203,2.9296875 C14.5773203,3.69141006 14.3949176,4.33349348 14.0301067,4.85595703 C13.6652958,5.37842058 13.1018339,5.71044851 12.3397042,5.85205078 C12.6178274,6.03271575 12.8291256,6.21093662 12.9736052,6.38671875 C13.2806242,6.76758003 13.571385,7.24364949 13.8458962,7.81494141 L15.2274751,10.7373047 L13.9054937,10.7373047 L12.8544101,8.50341797 C12.547391,7.8588835 12.2945556,7.36572437 12.0958962,7.02392578 C11.8972368,6.6821272 11.719349,6.44287178 11.5622274,6.30615234 C11.4051059,6.16943291 11.2452778,6.07421902 11.0827383,6.02050781 C10.9635426,5.98632795 10.7684981,5.96923828 10.497599,5.96923828 L9.27855871,5.96923828 L9.27855871,10.7373047 L8.22747512,10.7373047 Z M9.34645996,4.73876953 L11.7517006,4.73876953 C12.2631292,4.73876953 12.6630373,4.67163153 12.9514369,4.53735352 C13.2398365,4.4030755 13.4590169,4.1882339 13.6089847,3.89282227 C13.7589525,3.59741063 13.8339352,3.27636892 13.8339352,2.9296875 C13.8339352,2.42187246 13.6887763,2.00439617 13.398454,1.67724609 C13.1081318,1.35009602 12.6495833,1.18652344 12.0227948,1.18652344 L9.34645996,1.18652344 L9.34645996,4.73876953 Z" id="FR"></path>
        </g>
    </g>
</svg>