<?xml version="1.0" encoding="UTF-8" standalone="no"?>
<svg width="8px" height="13px" viewBox="0 0 8 13" version="1.1" xmlns="http://www.w3.org/2000/svg" xmlns:xlink="http://www.w3.org/1999/xlink">
    <!-- Generator: Sketch 42 (36781) - http://www.bohemiancoding.com/sketch -->
    <title>houzz</title>
    <desc>Created with Sketch.</desc>
    <defs></defs>
    <g id="Page-1" stroke="none" stroke-width="1" fill="none" fill-rule="evenodd">
        <g id="houzz" fill-rule="nonzero" fill="#000000">
            <g id="Layer_1">
                <path d="M7.32425167,2.50190341 C7.32425167,2.42502096 7.28282196,2.35417373 7.21582407,2.3159264 C7.14882617,2.27811536 7.06640465,2.2785274 7.00013658,2.31781696 L3.88821332,4.15250088 L3.88821332,0.213947487 C3.88821332,0.139779671 3.84962993,0.0710168955 3.78640279,0.031945484 C3.72295671,-0.0071259274 3.64401402,-0.0104707505 3.57740537,0.0225411989 L0.14134269,1.73424228 C0.068579181,1.77059905 0.0226488888,1.84457297 0.0226488888,1.92564857 L0.0226488888,5.99091744 C0.0226488888,6.04528293 0.0434002338,6.09676412 0.0794292395,6.13578706 C0.0440084209,6.17461609 0.0226488888,6.22500657 0.0226488888,6.27905698 L0.0226488888,10.0562105 C0.0226488888,10.133093 0.0640785963,10.2039402 0.131076491,10.2421875 C0.163991578,10.260778 0.200701754,10.2701823 0.237411929,10.2701823 C0.275265496,10.2701823 0.313119063,10.2601478 0.346788303,10.240297 L3.45871157,8.40541917 L3.45871157,12.1958308 C3.45871157,12.2681323 3.4953001,12.3354166 3.5559242,12.3749001 C3.59136934,12.3980957 3.63236116,12.4098026 3.67347461,12.4098026 C3.70274057,12.4098026 3.73198221,12.4039612 3.75956958,12.3918423 L7.19563226,10.894113 C7.27374781,10.8600588 7.32430033,10.7831521 7.32430033,10.6981257 L7.32430033,6.41883665 C7.32430033,6.39450185 7.31880231,6.37130623 7.31096886,6.34898317 C7.31880231,6.32666011 7.32430033,6.30344025 7.32430033,6.27905698 L7.32430033,2.50190341 L7.32425167,2.50190341 Z M3.57740537,7.93913144 C3.55988958,7.94788131 3.5441497,7.95900648 3.53001543,7.97168287 L0.4265338,6.14199194 L3.75954525,4.68917532 C3.79934502,4.67182102 3.8317249,4.64319612 3.85417917,4.60817243 L6.7895822,6.33897294 L3.57740537,7.93913144 Z" id="Shape"></path>
                <g id="Group" transform="translate(0.437895, 0.557471)">
                    <polygon id="Shape" points="6.45685518 2.31970751 6.45685518 5.34631186 3.89008654 3.83290061"></polygon>
                    <polygon id="Shape" points="0.0142559064 1.50041976 3.0207925 0.00269040116 3.0207925 3.79571975 0.0142559064 5.10623597"></polygon>
                    <polygon id="Shape" points="0.0142559064 9.12344119 0.0142559064 6.09683683 2.58102455 7.61005418"></polygon>
                    <polygon id="Shape" points="6.45685518 10.0006089 3.45031858 11.3111251 3.45031858 7.70533316 6.45685518 6.20757956"></polygon>
                </g>
            </g>
        </g>
    </g>
</svg>