<?xml version="1.0" encoding="UTF-8" standalone="no"?>
<svg width="14px" height="13px" viewBox="0 0 14 13" version="1.1" xmlns="http://www.w3.org/2000/svg" xmlns:xlink="http://www.w3.org/1999/xlink">
    <!-- Generator: Sketch 42 (36781) - http://www.bohemiancoding.com/sketch -->
    <title>instagram</title>
    <desc>Created with Sketch.</desc>
    <defs></defs>
    <g id="Page-1" stroke="none" stroke-width="1" fill="none" fill-rule="evenodd">
        <g id="instagram" transform="translate(0.276861, 0.000000)" fill-rule="nonzero" fill="#000000">
            <g id="Capa_1">
                <path d="M12.4960205,0.490446469 C12.1690957,0.163432802 11.7773189,0 11.3208975,0 L1.66565831,0 C1.20908884,0 0.817430524,0.163492027 0.490416856,0.490446469 C0.163462415,0.817312073 2.96127563e-05,1.20902961 2.96127563e-05,1.66551025 L2.96127563e-05,11.3206606 C2.96127563e-05,11.777082 0.163432802,12.1688884 0.490416856,12.4957836 C0.817430524,12.8227084 1.20917768,12.9862597 1.66565831,12.9862597 L11.320779,12.9862597 C11.7771116,12.9862597 12.1690068,12.8227084 12.4959317,12.4957836 C12.8229453,12.1688884 12.9862301,11.777082 12.9862301,11.3206606 L12.9862301,1.66551025 C12.9862005,1.20894077 12.8229453,0.817430524 12.4960205,0.490446469 Z M4.66288383,4.67955581 C5.17293394,4.18644419 5.785918,3.93976993 6.50174715,3.93976993 C7.2231139,3.93976993 7.83885194,4.18644419 8.3490205,4.67955581 C8.85918907,5.17275626 9.11412528,5.76886105 9.11412528,6.46775171 C9.11412528,7.16655353 8.85918907,7.76268793 8.3490205,8.25574032 C7.83885194,8.74905923 7.22332118,8.99570387 6.50174715,8.99570387 C5.78594761,8.99570387 5.17302278,8.74885194 4.66288383,8.25574032 C4.15271526,7.7626287 3.89766059,7.16655353 3.89766059,6.46775171 C3.89766059,5.76886105 4.15271526,5.17278588 4.66288383,4.67955581 Z M11.5153645,10.9741617 C11.5153645,11.1205968 11.4644897,11.2431344 11.3631253,11.3418337 C11.2614647,11.4404442 11.140467,11.489779 10.9994214,11.489779 L1.9616082,11.489779 C1.81508428,11.489779 1.69239863,11.4404442 1.59384738,11.3418337 C1.49514806,11.2433417 1.44584282,11.1205968 1.44584282,10.9741617 L1.44584282,5.49538724 L2.63790433,5.49538724 C2.52522779,5.85053303 2.46887472,6.21977449 2.46887472,6.60296355 C2.46887472,7.68539863 2.86337585,8.60819134 3.65246697,9.372082 C4.44164692,10.1356765 5.39135763,10.5176515 6.50171754,10.5176515 C7.23445558,10.5176515 7.91078132,10.3428474 8.53099089,9.99341686 C9.15099317,9.64377904 9.64105467,9.16902733 10.0020342,8.56868793 C10.3628064,7.96837813 10.5431777,7.31310706 10.5431777,6.60299317 C10.5431777,6.2198041 10.4866173,5.85065148 10.3739408,5.49541686 L11.5154237,5.49541686 L11.5154237,10.9741913 L11.5153645,10.9741913 L11.5153645,10.9741617 Z M11.5153645,3.42400456 C11.5153645,3.58746697 11.4590114,3.72558087 11.3460979,3.83828702 C11.2334214,3.951082 11.0953964,4.00740547 10.9318451,4.00740547 L9.46080182,4.00740547 C9.29742825,4.00740547 9.1591959,3.95105239 9.04651936,3.83828702 C8.93381321,3.72558087 8.87748975,3.58746697 8.87748975,3.42400456 L8.87748975,2.02912528 C8.87748975,1.87128929 8.93381321,1.73462642 9.04651936,1.61904784 C9.15922551,1.50352847 9.29745786,1.44569476 9.46080182,1.44569476 L10.9318451,1.44569476 C11.0953964,1.44569476 11.233451,1.50349886 11.3460979,1.61904784 C11.4589818,1.73462642 11.5153645,1.87128929 11.5153645,2.02912528 L11.5153645,3.42400456 Z" id="Shape"></path>
            </g>
        </g>
    </g>
</svg>