<?xml version="1.0" encoding="UTF-8" standalone="no"?>
<svg width="15px" height="13px" viewBox="0 0 15 13" version="1.1" xmlns="http://www.w3.org/2000/svg" xmlns:xlink="http://www.w3.org/1999/xlink">
    <!-- Generator: Sketch 42 (36781) - http://www.bohemiancoding.com/sketch -->
    <title>linkedin</title>
    <desc>Created with Sketch.</desc>
    <defs></defs>
    <g id="Page-1" stroke="none" stroke-width="1" fill="none" fill-rule="evenodd">
        <g id="linkedin" fill-rule="nonzero" fill="#000000">
            <g id="Capa_1">
                <g id="Group">
                    <path d="M0.459647055,12.996249 L2.29979731,12.996249 C2.55366588,12.996249 2.75944436,12.7897648 2.75944436,12.5350573 L2.75944436,4.46521739 C2.75944436,4.21048419 2.55366588,4.00405138 2.29979731,4.00405138 L0.459647055,4.00405138 C0.205752874,4.00405138 0,4.21048419 0,4.46521739 L0,12.5350573 C0,12.7897391 0.205752874,12.996249 0.459647055,12.996249 Z" id="Shape"></path>
                    <path d="M0.459647055,2.58533004 L2.29979731,2.58533004 C2.55366588,2.58533004 2.75944436,2.37887154 2.75944436,2.12416403 L2.75944436,0.484699605 C2.75944436,0.229992095 2.55366588,0.0235335968 2.29979731,0.0235335968 L0.459647055,0.0235335968 C0.205752874,0.0235335968 0,0.229992095 0,0.484699605 L0,2.12416403 C0,2.37887154 0.205752874,2.58533004 0.459647055,2.58533004 Z" id="Shape"></path>
                    <path d="M13.4624605,4.94005138 C13.2038802,4.59855731 12.8225908,4.31772134 12.3184386,4.09759486 C11.8142865,3.87762253 11.2577935,3.76755929 10.648934,3.76755929 C9.41293151,3.76755929 8.36560201,4.24082609 7.50697107,5.18753953 C7.33612064,5.37591107 7.2119007,5.33472727 7.2119007,5.07999407 L7.2119007,4.46521739 C7.2119007,4.21048419 7.00609662,4.00405138 6.75222804,4.00405138 L5.10845847,4.00405138 C4.85456429,4.00405138 4.64881142,4.21048419 4.64881142,4.46521739 L4.64881142,12.5350573 C4.64881142,12.7897648 4.8545899,12.996249 5.10845847,12.996249 L6.94860873,12.996249 C7.20250291,12.996249 7.40825578,12.7897648 7.40825578,12.5350573 L7.40825578,9.72857312 C7.40825578,8.55939526 7.47862403,7.75799407 7.61936053,7.32449802 C7.76004582,6.89100198 8.02036738,6.54290514 8.40006914,6.28015613 C8.77982211,6.01740711 9.20858703,5.88596838 9.68656875,5.88596838 C10.0597151,5.88596838 10.3789073,5.97794466 10.6440942,6.16192292 C10.9092555,6.34587549 11.1007709,6.60356324 11.2186146,6.93534585 C11.3365096,7.26707708 11.3954059,7.9978004 11.3954059,9.12761858 L11.3954059,12.5350316 C11.3954059,12.7897391 11.6011588,12.9962233 11.8550274,12.9962233 L13.6951776,12.9962233 C13.9490462,12.9962233 14.1547991,12.7897391 14.1547991,12.5350316 L14.1547991,7.96494071 C14.1547991,7.15706522 14.1040458,6.53630237 14.0026674,6.10280632 C13.901289,5.66931028 13.7211944,5.2817253 13.4624605,4.94005138 Z" id="Shape"></path>
                </g>
            </g>
        </g>
    </g>
</svg>