<?xml version="1.0" encoding="UTF-8" standalone="no"?>
<svg width="11px" height="13px" viewBox="0 0 11 13" version="1.1" xmlns="http://www.w3.org/2000/svg" xmlns:xlink="http://www.w3.org/1999/xlink">
    <!-- Generator: Sketch 42 (36781) - http://www.bohemiancoding.com/sketch -->
    <title>pinterest</title>
    <desc>Created with Sketch.</desc>
    <defs></defs>
    <g id="Page-1" stroke="none" stroke-width="1" fill="none" fill-rule="evenodd">
        <g id="pinterest" transform="translate(0.612248, 0.000000)" fill-rule="nonzero" fill="#000000">
            <g id="Layer_1">
                <g id="XMLID_798_">
                    <path d="M8.93566485,1.32809003 C8.03723619,0.471678457 6.79390893,0 5.43473143,0 C3.35852014,0 2.08155758,0.845083601 1.375932,1.55398071 C0.506297511,2.42761415 0.00761951022,3.58762379 0.00761951022,4.73663987 C0.00761951022,6.17930547 0.615328071,7.2866045 1.6330168,7.69854984 C1.70133981,7.72634727 1.77008379,7.74035048 1.83748067,7.74035048 C2.05217405,7.74035048 2.22228699,7.60086174 2.28122242,7.37710289 C2.31557337,7.24873312 2.3951783,6.93205145 2.42978183,6.79456913 C2.50387209,6.52307395 2.44401052,6.39248875 2.28244323,6.20342444 C1.98810281,5.85760772 1.85103582,5.44867203 1.85103582,4.91646624 C1.85103582,3.33564952 3.03648006,1.65555627 5.2335932,1.65555627 C6.97690346,1.65555627 8.05984214,2.63941801 8.05984214,4.22316077 C8.05984214,5.22257235 7.84304392,6.14812219 7.449271,6.82943087 C7.17564218,7.30282315 6.69447642,7.86713183 5.9558049,7.86713183 C5.63637482,7.86713183 5.34944343,7.73683923 5.16838535,7.50969453 C4.99734629,7.29496463 4.94097875,7.01757556 5.00976482,6.72848232 C5.08747541,6.40185209 5.19343291,6.06113505 5.29598057,5.73174598 C5.48301639,5.13015113 5.65982271,4.56195498 5.65982271,4.10862701 C5.65982271,3.33322508 5.17975147,2.81222186 4.46532767,2.81222186 C3.55738514,2.81222186 2.8460765,3.72790675 2.8460765,4.89686174 C2.8460765,5.47015756 2.99951913,5.89894855 3.06897875,6.06360129 C2.9546019,6.54481029 2.27482372,9.4056881 2.1458814,9.9451672 C2.07132807,10.2600932 1.62219794,12.7474405 2.36558429,12.9457846 C3.20082574,13.1686238 3.94741146,10.7461093 4.02339607,10.4723569 C4.08498361,10.2497267 4.30047683,9.40790354 4.4325343,8.89041158 C4.8357369,9.27606431 5.48495284,9.53677492 6.11665655,9.53677492 C7.30753127,9.53677492 8.37851447,9.00465273 9.13234082,8.03851447 C9.86343493,7.10142765 10.2660903,5.79532476 10.2660903,4.36097749 C10.2660903,3.23963344 9.7811358,2.13417363 8.93566485,1.32809003 Z" id="XMLID_799_"></path>
                </g>
            </g>
        </g>
    </g>
</svg>